<?xml version="1.0" standalone="no"?>
<!DOCTYPE svg PUBLIC "-//W3C//DTD SVG 20010904//EN"
 "http://www.w3.org/TR/2001/REC-SVG-20010904/DTD/svg10.dtd">
<svg version="1.0" xmlns="http://www.w3.org/2000/svg"
 width="750.000000pt" height="750.000000pt" viewBox="0 0 750.000000 750.000000"
 preserveAspectRatio="xMidYMid meet">
<metadata>
Created by potrace 1.14, written by Peter Selinger 2001-2017
</metadata>
<g transform="translate(0.000000,750.000000) scale(0.100000,-0.100000)"
fill="#000000" stroke="none">
<path d="M3646 6226 c-57 -21 -108 -67 -136 -122 l-25 -48 0 -356 c0 -347 1
-356 22 -396 59 -111 184 -160 304 -119 52 18 88 49 127 108 l27 42 2 355 c3
339 2 357 -18 400 -25 56 -62 96 -113 122 -51 26 -139 33 -190 14z"/>
<path d="M1331 5158 c-148 -39 -225 -207 -156 -344 18 -36 90 -114 262 -285
211 -208 244 -237 288 -251 120 -38 254 21 301 131 22 50 24 136 6 185 -21 54
-476 516 -538 547 -48 23 -113 29 -163 17z"/>
<path d="M6100 5160 c-71 -13 -119 -53 -351 -287 -215 -216 -238 -243 -252
-289 -48 -163 61 -315 227 -317 44 -1 74 5 106 21 63 30 511 481 535 537 73
175 -81 369 -265 335z"/>
<path d="M3549 4896 c-2 -2 -30 -6 -62 -10 -31 -3 -67 -8 -80 -11 -12 -3 -33
-7 -47 -9 -233 -39 -505 -157 -727 -317 -121 -88 -313 -282 -404 -409 -188
-262 -324 -593 -383 -930 -3 -19 -8 -45 -10 -57 -3 -12 -8 -53 -11 -90 -4 -37
-9 -77 -11 -88 -3 -11 -7 -90 -9 -176 -4 -123 -1 -167 11 -209 31 -105 99
-184 199 -231 177 -84 392 -8 476 167 37 78 36 74 44 250 3 77 7 149 9 160 2
10 6 42 10 69 81 604 428 1031 926 1141 100 22 295 27 392 9 368 -66 662 -296
833 -650 60 -125 122 -333 140 -470 17 -124 24 -205 26 -308 1 -51 8 -114 16
-141 79 -266 421 -349 611 -150 48 52 86 121 97 179 7 41 8 241 1 285 -3 14
-7 59 -11 100 -8 105 -12 131 -36 250 -26 129 -23 120 -49 205 -12 39 -25 84
-29 100 -12 45 -57 158 -102 254 -142 303 -363 572 -619 751 -47 33 -89 63
-95 67 -21 17 -114 66 -195 105 -134 63 -328 123 -470 144 -19 3 -46 8 -60 11
-29 6 -375 14 -381 9z"/>
<path d="M697 2918 c-99 -21 -171 -103 -184 -208 -9 -78 12 -137 72 -196 74
-74 90 -76 495 -72 l335 3 40 24 c77 47 114 104 122 187 11 106 -40 199 -135
246 -46 22 -52 23 -377 24 -181 0 -347 -3 -368 -8z"/>
<path d="M6089 2914 c-56 -17 -113 -64 -142 -117 -32 -62 -31 -177 2 -232 28
-45 50 -66 101 -98 34 -21 44 -22 386 -25 318 -3 355 -1 396 15 59 24 102 62
129 113 61 116 19 257 -97 326 l-49 29 -341 1 c-252 0 -353 -3 -385 -12z"/>
<path d="M2110 2034 c-105 -28 -205 -115 -251 -218 -27 -62 -32 -87 -31 -166
1 -162 113 -312 269 -360 65 -20 87 -20 1607 -20 1333 0 1548 2 1590 15 375
113 373 640 -3 749 -49 14 -221 16 -1590 15 -1318 0 -1544 -2 -1591 -15z"/>
</g>
</svg>
