<svg width="201" height="91" viewBox="0 0 201 91" fill="none" xmlns="http://www.w3.org/2000/svg">
<path d="M16.0902 52.9088H10.629V48.0398C10.629 47.5573 10.4535 47.1406 10.1026 46.7897C9.75171 46.3949 9.33499 46.1975 8.85248 46.1975C8.3261 46.1975 7.86552 46.3729 7.47074 46.7239C7.11982 47.0748 6.94436 47.5134 6.94436 48.0398C6.94436 48.9171 6.94436 49.7725 6.94436 50.6059C6.98823 51.3955 7.18562 52.185 7.53654 52.9746C7.5804 53.0623 7.712 53.4132 7.93132 54.0273C8.19451 54.6415 8.50156 55.4091 8.85248 56.3302C9.24727 57.2514 9.66398 58.3042 10.1026 59.4885C10.5851 60.629 11.0677 61.7914 11.5502 62.9758C12.6468 65.7831 13.8969 68.9194 15.3006 72.3848C15.5638 72.9989 15.7393 73.6349 15.827 74.2929C15.9586 74.907 16.0463 75.543 16.0902 76.201V76.2668C16.134 76.837 16.134 77.4073 16.0902 77.9775C16.0902 78.5039 16.0244 79.0522 15.8928 79.6225C15.6296 80.5875 15.1909 81.4867 14.5768 82.3201C14.0066 83.1097 13.2828 83.7457 12.4055 84.2283C11.3089 84.8862 10.1026 85.2152 8.78668 85.2152C7.77779 85.2152 6.8347 85.0178 5.95741 84.623C5.08011 84.2283 4.31248 83.7019 3.6545 83.0439C2.99653 82.3859 2.47015 81.6183 2.07537 80.741C1.68059 79.8637 1.4832 78.9206 1.4832 77.9117V72.1216H6.94436V77.8459C6.94436 78.3284 7.11982 78.7671 7.47074 79.1619C7.82166 79.5128 8.26031 79.6883 8.78668 79.6883C9.2692 79.7321 9.68591 79.5786 10.0368 79.2277C10.4316 78.8329 10.629 78.3942 10.629 77.9117C10.629 77.0344 10.629 76.1791 10.629 75.3456C10.629 74.5122 10.4535 73.7007 10.1026 72.9111C10.0588 72.8234 9.90524 72.4725 9.64205 71.8584C9.42272 71.2443 9.11567 70.4766 8.72089 69.5555C8.36997 68.6343 7.95325 67.6035 7.47074 66.463C7.03209 65.2787 6.57151 64.0943 6.089 62.91C4.94852 60.1465 3.67644 57.0321 2.27276 53.5668C2.00957 52.9527 1.81218 52.3166 1.68059 51.6587C1.59286 51.0007 1.52706 50.3427 1.4832 49.6847C1.4832 49.1145 1.4832 48.5442 1.4832 47.974C1.4832 47.4038 1.54899 46.8555 1.68059 46.3291C2.20697 44.3113 3.39132 42.7541 5.23364 41.6575C6.33026 41.0434 7.51461 40.7363 8.78668 40.7363C9.79557 40.7363 10.7387 40.9337 11.616 41.3285C12.5371 41.7233 13.3267 42.2497 13.9847 42.9076C14.6426 43.5656 15.1471 44.3332 15.498 45.2105C15.8928 46.0878 16.0902 47.0309 16.0902 48.0398V52.9088ZM26.8593 40.9995C27.8682 40.9995 28.8113 41.1969 29.6886 41.5917C30.5659 41.9865 31.3335 42.5128 31.9915 43.1708C32.6495 43.8288 33.1759 44.5964 33.5706 45.4737C33.9654 46.351 34.1628 47.2941 34.1628 48.303V61.1334C34.1628 62.1423 33.9654 63.0854 33.5706 63.9627C33.1759 64.84 32.6495 65.6077 31.9915 66.2656C31.3335 66.9236 30.5659 67.45 29.6886 67.8448C28.8113 68.2395 27.8682 68.4369 26.8593 68.4369H25.017V84.8862H19.5558V40.9995H26.8593ZM28.7016 48.303C28.7016 47.8205 28.5043 47.4038 28.1095 47.0528C27.7585 46.7019 27.3418 46.5265 26.8593 46.5265H25.017V62.9758H26.8593C27.3418 62.9758 27.7585 62.8003 28.1095 62.4494C28.5043 62.0546 28.7016 61.616 28.7016 61.1334V48.303ZM43.2716 46.5265V60.2123H46.9563V65.6734H43.2716V79.4251H46.9563V84.8862H37.8104V40.9995H46.9563V46.5265H43.2716ZM66.4954 84.8862H61.0343L60.3105 79.4251H56.2311L55.5073 84.8862H50.0461L55.5073 40.9995H61.0343L66.4954 84.8862ZM59.6525 73.8981L58.2708 62.9758L56.8891 73.8981H59.6525ZM79.4847 62.9758L83.8931 84.8862H78.432L74.7473 66.7262V84.8862H69.2862V40.9995H74.7473V59.1595L78.432 40.9995H83.8931L79.4847 62.9758ZM111.047 78.5697C111.486 79.6663 111.903 80.741 112.297 81.7938C112.692 82.8465 113.109 83.9212 113.548 85.0178H108.086C107.999 84.8424 107.889 84.623 107.757 84.3599C107.67 84.0967 107.582 83.8335 107.494 83.5703C107.407 83.3071 107.319 83.1097 107.231 82.9781C107.187 82.8027 107.165 82.7149 107.165 82.7149C106.639 83.5484 105.981 84.1625 105.191 84.5572C104.402 84.952 103.568 85.1714 102.691 85.2152C101.814 85.2591 100.915 85.1494 99.9934 84.8862C99.1161 84.5792 98.3265 84.1625 97.6247 83.6361C96.7036 82.9342 95.9798 82.0789 95.4534 81.07C94.927 80.0172 94.6638 78.8987 94.6638 77.7143V64.9497C94.6638 63.6776 94.9709 62.4933 95.585 61.3966C96.1991 60.3 97.0106 59.4446 98.0195 58.8305L96.0456 53.6984C95.7824 53.0843 95.6069 52.4701 95.5192 51.856C95.4315 51.1981 95.3657 50.5401 95.3218 49.8821V49.8163C95.2779 49.2461 95.256 48.6978 95.256 48.1714C95.2999 47.6012 95.3876 47.0309 95.5192 46.4607C95.7385 45.4956 96.1552 44.6184 96.7693 43.8288C97.3835 42.9954 98.1292 42.3374 99.0065 41.8549C100.147 41.1969 101.353 40.8679 102.625 40.8679C103.634 40.8679 104.577 41.0653 105.455 41.4601C106.332 41.8549 107.1 42.3812 107.757 43.0392C108.415 43.6972 108.942 44.4648 109.337 45.3421C109.731 46.2194 109.929 47.1625 109.929 48.1714V52.7772H104.402V48.2372C104.402 47.7547 104.226 47.338 103.875 46.987C103.525 46.5923 103.108 46.3949 102.625 46.3949C102.099 46.351 101.66 46.5265 101.309 46.9213C100.958 47.2722 100.783 47.6889 100.783 48.1714C100.783 49.0487 100.783 49.9041 100.783 50.7375C100.783 51.5709 100.958 52.3824 101.309 53.172C101.353 53.2597 101.594 53.8958 102.033 55.0801C102.516 56.2645 103.108 57.7778 103.81 59.6201L105.52 64.0943V57.6462H111.442V63.1074H109.863V75.4772C110.082 76.0036 110.28 76.53 110.455 77.0564C110.631 77.5389 110.828 78.0433 111.047 78.5697ZM103.81 79.5567C104.643 79.5567 105.213 79.1619 105.52 78.3723L103.81 73.8981L100.191 64.4891C100.191 64.5768 100.169 64.6646 100.125 64.7523C100.125 64.7962 100.125 64.862 100.125 64.9497V77.7143C100.125 78.2407 100.3 78.6794 100.651 79.0303C101.046 79.3812 101.485 79.5567 101.967 79.5567H103.81ZM137.789 52.9088H132.328V48.0398C132.328 47.5573 132.153 47.1406 131.802 46.7897C131.451 46.3949 131.034 46.1975 130.552 46.1975C130.025 46.1975 129.565 46.3729 129.17 46.7239C128.819 47.0748 128.643 47.5134 128.643 48.0398C128.643 48.9171 128.643 49.7725 128.643 50.6059C128.687 51.3955 128.885 52.185 129.236 52.9746C129.279 53.0623 129.411 53.4132 129.63 54.0273C129.894 54.6415 130.201 55.4091 130.552 56.3302C130.946 57.2514 131.363 58.3042 131.802 59.4885C132.284 60.629 132.767 61.7914 133.249 62.9758C134.346 65.7831 135.596 68.9194 137 72.3848C137.263 72.9989 137.438 73.6349 137.526 74.2929C137.658 74.907 137.745 75.543 137.789 76.201V76.2668C137.833 76.837 137.833 77.4073 137.789 77.9775C137.789 78.5039 137.723 79.0522 137.592 79.6225C137.329 80.5875 136.89 81.4867 136.276 82.3201C135.706 83.1097 134.982 83.7457 134.105 84.2283C133.008 84.8862 131.802 85.2152 130.486 85.2152C129.477 85.2152 128.534 85.0178 127.657 84.623C126.779 84.2283 126.012 83.7019 125.354 83.0439C124.696 82.3859 124.169 81.6183 123.774 80.741C123.38 79.8637 123.182 78.9206 123.182 77.9117V72.1216H128.643V77.8459C128.643 78.3284 128.819 78.7671 129.17 79.1619C129.521 79.5128 129.959 79.6883 130.486 79.6883C130.968 79.7321 131.385 79.5786 131.736 79.2277C132.131 78.8329 132.328 78.3942 132.328 77.9117C132.328 77.0344 132.328 76.1791 132.328 75.3456C132.328 74.5122 132.153 73.7007 131.802 72.9111C131.758 72.8234 131.604 72.4725 131.341 71.8584C131.122 71.2443 130.815 70.4766 130.42 69.5555C130.069 68.6343 129.652 67.6035 129.17 66.463C128.731 65.2787 128.271 64.0943 127.788 62.91C126.648 60.1465 125.376 57.0321 123.972 53.5668C123.709 52.9527 123.511 52.3166 123.38 51.6587C123.292 51.0007 123.226 50.3427 123.182 49.6847C123.182 49.1145 123.182 48.5442 123.182 47.974C123.182 47.4038 123.248 46.8555 123.38 46.3291C123.906 44.3113 125.09 42.7541 126.933 41.6575C128.029 41.0434 129.214 40.7363 130.486 40.7363C131.495 40.7363 132.438 40.9337 133.315 41.3285C134.236 41.7233 135.026 42.2497 135.684 42.9076C136.342 43.5656 136.846 44.3332 137.197 45.2105C137.592 46.0878 137.789 47.0309 137.789 48.0398V52.9088ZM155.862 40.9995V84.8862H150.401V65.6734H146.716V84.8862H141.255V40.9995H146.716V60.2123H150.401V40.9995H155.862ZM160.146 84.8862V40.9995H165.607V84.8862H160.146ZM185.178 40.9995V84.8862H179.716L175.111 62.9758V84.8862H169.649V40.9995H175.111L179.716 62.9758V40.9995H185.178ZM194.914 46.5265V60.2123H198.598V65.6734H194.914V79.4251H198.598V84.8862H189.452V40.9995H198.598V46.5265H194.914Z" fill="black"/>
<rect x="87.7197" y="28.5366" width="25.5502" height="5.30914" rx="2.65457" fill="#FDCD3C"/>
<rect x="115.593" y="22.5638" width="7.30007" height="3.31821" rx="1.65911" fill="#FDCD3C"/>
<rect x="99.0016" y="7.30005" width="7.30007" height="3.31821" rx="1.65911" transform="rotate(-90 99.0016 7.30005)" fill="#FDCD3C"/>
<rect x="111.943" y="11.7983" width="7.30007" height="3.31821" rx="1.65911" transform="rotate(-45 111.943 11.7983)" fill="#FDCD3C"/>
<rect width="7.30007" height="3.31821" rx="1.65911" transform="matrix(-0.707107 -0.707107 -0.707107 0.707107 89.9188 11.7983)" fill="#FDCD3C"/>
<rect x="78.7605" y="22.5638" width="7.30007" height="3.31821" rx="1.65911" fill="#FDCD3C"/>
<path d="M90.0424 24.1815C90.0424 7.42454 110.947 7.42453 110.947 24.1815" stroke="#FDCD3C" stroke-width="4.97732" stroke-linecap="round"/>
</svg>
